<svg id="Layer_1" enable-background="new 0 0 480.092 480.092" height="512" viewBox="0 0 480.092 480.092" width="512" xmlns="http://www.w3.org/2000/svg"><circle cx="240.054" cy="240.072" fill="#b9dcff" r="232"/><path d="m34.054 256.072c0 28.943 5.3 56.649 14.982 82.198 3.875 10.226-10.886 16.684-15.848 6.94-15.752-30.933-24.771-65.871-25.123-102.881-1.237-129.704 102.941-234.619 232.652-234.256 10.962.031 11.844 16.068.949 17.271-110.876 12.249-207.612 104.281-207.612 230.728z" fill="#d1e7ff"/><circle cx="240.054" cy="240.072" fill="#d1e7ff" r="190"/><path d="m69.217 323.317c-13.028-26.683-19.989-56.871-19.084-88.766 2.935-103.544 89.512-186.515 193.772-184.441 12.036.239 13.054 17.79 1.12 19.373-111.852 14.831-190.35 138.454-157.76 246.773 3.416 11.353-12.846 17.716-18.048 7.061z" fill="#e8f3ff"/><circle cx="240.054" cy="240.072" fill="#b9dcff" r="135"/><path d="m213.054 189.862v100.42c-39.954-21.52-39.97-78.891 0-100.42z" fill="#d1e7ff"/><path d="m267.054 189.862c39.954 21.52 39.97 78.891 0 100.42z" fill="#d1e7ff"/><path d="m288.054 319.123v10.949c0 4.418-3.582 8-8 8h-80c-4.418 0-8-3.582-8-8v-10.949c0-3.086 1.775-5.896 4.561-7.223l11.879-5.657c2.786-1.327 4.561-4.137 4.561-7.223v-113.948c0-4.418-3.582-8-8-8h-5c-4.418 0-8-3.582-8-8v-13.405c0-2.845 1.511-5.477 3.969-6.91l18.163-10.595c1.223-.714 2.615-1.09 4.031-1.09h40.837c4.418 0 8 3.582 8 8v153.949c0 3.086 1.775 5.896 4.561 7.223l11.879 5.657c2.784 1.326 4.559 4.137 4.559 7.222z" fill="#e8f3ff"/><g fill="#2e58ff"><path d="m409.759 70.367c-93.79-93.792-245.606-93.804-339.411 0-93.791 93.789-93.804 245.608 0 339.41 82.552 82.552 207.561 91.046 298.913 32.58 3.722-2.382 4.808-7.329 2.426-11.051-2.382-3.721-7.33-4.807-11.051-2.426-35.971 23.022-77.668 35.191-120.582 35.191-123.514 0-224-100.486-224-224s100.486-224 224-224 224 100.486 224 224c0 59.701-23.212 115.864-65.361 158.144-3.119 3.129-3.111 8.194.018 11.314 3.129 3.119 8.193 3.111 11.314-.018 92.521-92.809 94.408-244.472-.266-339.144z"/><path d="m126.525 77.833c-52.893 37.078-84.471 97.729-84.471 162.239 0 109.178 88.822 198 198 198s198-88.822 198-198-88.822-198-198-198c-23.982 0-47.424 4.242-69.676 12.609-4.135 1.556-6.227 6.168-4.672 10.304 1.555 4.135 6.165 6.229 10.304 4.673 20.445-7.687 41.992-11.586 64.044-11.586 100.355 0 182 81.645 182 182s-81.645 182-182 182-182-81.645-182-182c0-59.299 29.03-115.051 77.656-149.138 3.618-2.536 4.495-7.525 1.958-11.143-2.536-3.617-7.525-4.493-11.143-1.958z"/><path d="m259.095 291.09c.562 5.67 6.806 8.956 11.807 6.208 21.067-11.376 34.152-33.298 34.152-57.226 0-4.418-3.582-8-8-8s-8 3.582-8 8c0 13.032-5.151 25.273-14 34.301v-137.301c0-4.418-3.582-8-8-8h-51c-1.417 0-2.808.376-4.031 1.09l-24 14c-2.458 1.434-3.969 4.064-3.969 6.91v26c0 4.418 3.582 8 8 8h13v.233c-24.734 15.808-36.003 46.453-26.868 74.752 1.094 3.388 4.233 5.544 7.611 5.544 5.4 0 9.29-5.272 7.615-10.46-5.714-17.701-.837-36.623 11.641-49.364v93.244l-16.439 7.828c-2.786 1.326-4.561 4.137-4.561 7.223v24c0 4.418 3.582 8 8 8h96c4.418 0 8-3.582 8-8v-24c0-4.418-3.582-8-8-8s-8 3.582-8 8v16h-80v-10.949l16.439-7.828c2.786-1.326 4.561-4.137 4.561-7.223v-127c0-4.418-3.582-8-8-8h-13v-13.405l18.163-10.595h40.837c.001 97.303-.022 145.389.042 146.018z"/><path d="m326.946 136.441c2.636-3.546 1.899-8.557-1.646-11.193-24.79-18.433-54.268-28.176-85.246-28.176-78.851 0-143 64.149-143 143s64.149 143 143 143 143-64.149 143-143c0-29.989-9.184-58.699-26.559-83.025-2.567-3.595-7.563-4.429-11.159-1.86-3.596 2.567-4.429 7.564-1.86 11.159 15.425 21.597 23.578 47.091 23.578 73.727 0 70.028-56.972 127-127 127s-127-56.972-127-127 56.972-127 127-127c27.514 0 53.689 8.65 75.699 25.016 3.544 2.634 8.556 1.898 11.193-1.648z"/></g></svg>